
        <svg xmlns="http://www.w3.org/2000/svg" xmlns:xlink="http://www.w3.org/1999/xlink" version="1.1" width="3207.6124567474044" 
        height="842.9065743944636" viewBox="0 0 3207.6124567474044 842.9065743944636">
			
			<g transform="scale(10.380622837370241) translate(10, 10)">
				<defs id="SvgjsDefs1114"><linearGradient id="SvgjsLinearGradient1121"><stop id="SvgjsStop1122" stop-color="#ef4136" offset="0"></stop><stop id="SvgjsStop1123" stop-color="#fbb040" offset="1"></stop></linearGradient></defs><g id="SvgjsG1115" featureKey="symbolFeature-0" transform="matrix(0.8569310449666238,0,0,0.8569310449666238,-2.0303010708211016,-12.497261393031021)" fill="url(#SvgjsLinearGradient1121)"><g xmlns="http://www.w3.org/2000/svg"><g><g><g><circle cx="42.692" cy="80.595" r="3.888"></circle></g><g><path d="M47.234,63.9c-2.255-2.058-3.994-8.579,2.516-10.977c6.207-2.287,13.525,12.121,1.83,15.094      c-12.603,3.204-18.063-19.139-6.175-27.443c31.126-21.742-3.546-40.633-0.124-9.834c5.776,42.406,6.482,41.893,6.698,47.784      c0.15,4.093-2.425,7.332-6.77,6.417c-1.409-0.297,0.298-1.566,0.229-1.601c-1.372-0.686-3.016,1.147-4.117,0.915      c8.69,4.803,11.756-1.338,11.507-5.946c-0.173-3.197-5.104-47.366-5.104-48.661c0-13.264,7.972-11.663,7.286-5.489      S40.145,40.573,36.486,48.12s-2.884,17.575,8.462,21.269c11.238,3.659,21.758-9.148,16.269-16.009      C52.911,42.998,37.204,56.124,47.234,63.9z"></path></g></g><g><path d="M38.43,27.664H21.825c-0.764,0-1.384-0.619-1.384-1.384c0-0.765,0.62-1.384,1.384-1.384H38.43     c0.764,0,1.384,0.619,1.384,1.384C39.814,27.045,39.194,27.664,38.43,27.664z"></path></g><g><path d="M77.175,27.664H63.337c-0.764,0-1.384-0.619-1.384-1.384c0-0.765,0.62-1.384,1.384-1.384h13.837     c0.764,0,1.384,0.619,1.384,1.384C78.559,27.045,77.939,27.664,77.175,27.664z"></path></g><g><path d="M34.279,40.117H14.906c-0.764,0-1.384-0.619-1.384-1.384c0-0.765,0.62-1.384,1.384-1.384h19.372     c0.764,0,1.384,0.619,1.384,1.384C35.663,39.499,35.043,40.117,34.279,40.117z"></path></g><g><path d="M84.094,40.117H55.035c-0.764,0-1.384-0.619-1.384-1.384c0-0.765,0.62-1.384,1.384-1.384h29.059     c0.764,0,1.384,0.619,1.384,1.384C85.477,39.499,84.858,40.117,84.094,40.117z"></path></g><g><path d="M27.36,52.571H10.755c-0.764,0-1.384-0.619-1.384-1.384s0.62-1.384,1.384-1.384H27.36c0.764,0,1.384,0.619,1.384,1.384     S28.124,52.571,27.36,52.571z"></path></g><g><path d="M88.245,52.571H67.489c-0.764,0-1.384-0.619-1.384-1.384s0.62-1.384,1.384-1.384h20.756c0.764,0,1.384,0.619,1.384,1.384     S89.009,52.571,88.245,52.571z"></path></g><g><path d="M30.128,65.025H16.29c-0.764,0-1.384-0.619-1.384-1.384c0-0.765,0.62-1.384,1.384-1.384h13.837     c0.764,0,1.384,0.619,1.384,1.384C31.511,64.406,30.892,65.025,30.128,65.025z"></path></g><g><path d="M84.094,65.025H67.489c-0.764,0-1.384-0.619-1.384-1.384c0-0.765,0.62-1.384,1.384-1.384h16.605     c0.764,0,1.384,0.619,1.384,1.384C85.477,64.406,84.858,65.025,84.094,65.025z"></path></g><g><path d="M32.895,77.479h-9.686c-0.764,0-1.384-0.619-1.384-1.384c0-0.765,0.62-1.384,1.384-1.384h9.686     c0.764,0,1.384,0.619,1.384,1.384C34.279,76.86,33.659,77.479,32.895,77.479z"></path></g><g><path d="M75.791,77.479H60.57c-0.764,0-1.384-0.619-1.384-1.384c0-0.765,0.62-1.384,1.384-1.384h15.221     c0.764,0,1.384,0.619,1.384,1.384C77.175,76.86,76.555,77.479,75.791,77.479z"></path></g></g></g></g><g id="SvgjsG1116" featureKey="nameFeature-0" transform="matrix(1.722242760255627,0,0,1.722242760255627,91.14456693061854,-25.966698098946047)" fill="#111111"><path d="M-1 40.88 c-0.6 -0.72 -0.04 -1.52 1.04 -2.04 c1.04 -0.52 1.24 -1.32 0.92 -2.04 c-1.04 -2.36 -1.36 -3 -1.12 -3.96 c0.24 -0.84 0.92 -1.4 1.72 -1.44 c0.76 -0.04 1.28 0.32 1.6 0.96 c0.28 0.56 0.2 1.48 -0.52 1.96 c-0.16 0.08 -0.44 0.24 -0.6 0.08 c-0.24 -0.16 -0.12 -0.32 0.08 -0.52 c1.04 -0.8 -0.08 -2.2 -0.96 -1.52 c-0.96 0.72 -0.56 1.88 0.76 4.72 c0.12 0.24 0.4 0.6 0.88 0.36 c0.92 -0.4 2.08 -0.92 3.2 -1.44 c2.04 -0.96 3.88 -2.12 5.76 -3.36 c0.24 -0.16 0.56 -0.6 0.84 -0.16 c0.24 0.36 -0.16 0.52 -0.44 0.72 c-2.64 1.88 -5.4 3.44 -8.44 4.6 c-0.96 0.36 -1.68 1 -1.92 1.92 c-0.28 1 -2.04 2.08 -2.8 1.16 z M0.28 40.44 c0.92 -0.36 1.28 -1.68 0.48 -1.28 c-1.72 0.84 -1.24 1.6 -0.48 1.28 z M29.93 32.4 c0.36 0.24 0.12 0.48 -0.08 0.64 c-2.68 2.36 -4.8 4.88 -8 6.68 c-1.24 0.68 -2.76 1.64 -4.04 0.52 c-1.36 -1.24 -0.44 -2.84 0.12 -4.24 c0.36 -0.92 0.92 -1.8 1.24 -2.72 c0.24 -0.72 0.08 -1.16 -0.88 -0.8 c-2.24 0.88 -3.96 2.44 -5.6 4.08 c-0.4 0.44 -0.76 0.92 -1.16 1.4 c-0.24 0.28 -0.48 0.8 -0.88 0.52 c-0.32 -0.24 -0.16 -0.72 0 -1.12 c0.92 -2.2 1.76 -4.44 2.72 -6.64 c1.76 -4 3.6 -8 6.24 -11.52 c1 -1.32 2.12 -2.56 3.68 -3.24 c1.96 -0.84 3.48 0.12 3.44 2.28 c-0.08 2.24 -1.32 4.04 -2.68 5.64 c-2.24 2.68 -4.84 5 -7.96 6.6 c-2 1 -2.96 2.52 -3.4 4.52 c-0.04 0.16 -0.04 0.32 0.2 0.2 c1.28 -0.96 2.4 -2.08 3.84 -2.84 c0.64 -0.36 1.24 -0.76 2 -0.8 c1.28 -0.08 1.76 0.44 1.36 1.68 c-0.32 0.92 -0.84 1.8 -1.24 2.68 c-0.28 0.64 -0.56 1.24 -0.76 1.84 c-0.2 0.64 -0.36 1.36 0.16 1.88 c0.56 0.56 1.24 0.36 1.88 0.12 c2.52 -0.92 5.32 -3.48 9.16 -7.08 c0.16 -0.16 0.4 -0.44 0.64 -0.28 z M16.29 26.52 c-0.56 1.24 -1.44 2.32 -1.44 3.76 c4.28 -2 7.68 -5.04 10.16 -9.08 c0.44 -0.72 0.72 -1.56 0.96 -2.36 c0.2 -0.72 0.2 -1.48 -0.44 -2.04 c-0.72 -0.56 -1.52 -0.4 -2.24 0 c-0.96 0.6 -1.8 1.36 -2.52 2.24 c-1.8 2.32 -3.28 4.8 -4.48 7.48 z M30.98 39.8 c-2.64 0 -3.72 -1.52 -2.96 -4.04 c0.52 -1.56 1.4 -2.84 2.72 -3.8 c0.96 -0.68 2.04 -0.76 2.96 -0.04 c0.72 0.56 0.48 2.08 -0.44 3 c-1 1 -2.2 1.6 -3.68 1.52 c-0.96 -0.08 -1.32 0.6 -0.84 1.48 c0.52 0.96 1.96 1.48 3.36 1.08 c2.32 -0.68 4.32 -2 6.04 -3.68 c1.04 -1 1.88 -1.64 2.92 -2.68 c0.16 -0.16 0.4 -0.44 0.64 -0.12 c0.12 0.16 0.04 0.36 -0.08 0.52 c-2.72 2.8 -5.2 5.28 -9.08 6.56 c-0.52 0.16 -1.04 0.16 -1.56 0.2 z M29.78 35.68 c1.04 0.48 3.56 -1.24 3.6 -2.64 c-0.04 -0.6 -0.52 -0.92 -1.32 -0.8 c-0.8 0.08 -2.6 1.88 -2.72 2.68 c-0.08 0.4 0.12 0.64 0.44 0.76 z M42.75 39.8 c-2.64 0 -3.72 -1.52 -2.96 -4.04 c0.52 -1.56 1.4 -2.84 2.72 -3.8 c0.96 -0.68 2.04 -0.76 2.96 -0.04 c0.72 0.56 0.48 2.08 -0.44 3 c-1 1 -2.2 1.6 -3.68 1.52 c-0.96 -0.08 -1.32 0.6 -0.84 1.48 c0.52 0.96 1.96 1.48 3.36 1.08 c2.32 -0.68 4.32 -2 6.04 -3.68 c1.04 -1 1.88 -1.64 2.92 -2.68 c0.16 -0.16 0.4 -0.44 0.64 -0.12 c0.12 0.16 0.04 0.36 -0.08 0.52 c-2.72 2.8 -5.2 5.28 -9.08 6.56 c-0.52 0.16 -1.04 0.16 -1.56 0.2 z M41.550000000000004 35.68 c1.04 0.48 3.56 -1.24 3.6 -2.64 c-0.04 -0.6 -0.52 -0.92 -1.32 -0.8 c-0.8 0.08 -2.6 1.88 -2.72 2.68 c-0.08 0.4 0.12 0.64 0.44 0.76 z M55.800000000000004 40.08 c-2.36 0.16 -3.12 -0.56 -3.24 -2.88 c-0.08 -2.08 0.76 -3.92 1.52 -5.72 c0.84 -1.96 1.72 -3.88 2.6 -5.8 c0.2 -0.48 0.76 -1.32 0.48 -1.48 c-0.08 -0.16 -1.44 0.04 -1.92 0.04 c-1.16 0.12 -3.36 0.24 -4.08 0.24 c-0.24 0 -0.6 0 -0.56 -0.4 c0.04 -0.36 0.4 -0.32 0.6 -0.32 c0.92 -0.04 3.12 -0.12 4.68 -0.24 c2.24 -0.16 1.96 -0.32 2.96 -2.56 c0.52 -1.28 1.24 -2.48 1.88 -3.72 c0.16 -0.28 0.36 -0.68 0.72 -0.48 c0.4 0.2 0.08 0.56 -0.04 0.84 c-0.68 1.36 -1.36 2.72 -2 4.12 c-0.72 1.6 -0.84 1.6 0.04 1.56 c1.04 0 1.64 -0.08 2.04 -0.08 c0.6 0 1.32 -0.16 2.04 -0.16 c0.92 -0.04 1.2 -0.24 1.24 0.32 c0 0.36 -0.52 0.28 -1.4 0.36 c-0.92 0.08 -2.44 0.24 -3.96 0.32 c-1 0 -1.12 0.16 -1.4 0.84 c-1.48 3.48 -3.36 6.76 -4.4 10.4 c-0.36 1.32 -0.76 2.76 0.44 3.72 c1.28 1 2.64 0.32 3.8 -0.52 c2.08 -1.48 4 -3.68 5.68 -5.56 c0.24 -0.28 0.52 -0.84 0.88 -0.6 c0.48 0.4 -0.12 0.68 -0.44 1.24 c-1.92 2.16 -3.68 4.12 -6 5.68 c-0.64 0.44 -1.32 0.8 -2.16 0.84 z M65.37 39.8 c-2.64 0 -3.72 -1.52 -2.96 -4.04 c0.52 -1.56 1.4 -2.84 2.72 -3.8 c0.96 -0.68 2.04 -0.76 2.96 -0.04 c0.72 0.56 0.48 2.08 -0.44 3 c-1 1 -2.2 1.6 -3.68 1.52 c-0.96 -0.08 -1.32 0.6 -0.84 1.48 c0.52 0.96 1.96 1.48 3.36 1.08 c2.32 -0.68 4.32 -2 6.04 -3.68 c1.04 -1 1.88 -1.64 2.92 -2.68 c0.16 -0.16 0.4 -0.44 0.64 -0.12 c0.12 0.16 0.04 0.36 -0.08 0.52 c-2.72 2.8 -5.2 5.28 -9.08 6.56 c-0.52 0.16 -1.04 0.16 -1.56 0.2 z M64.17 35.68 c1.04 0.48 3.56 -1.24 3.6 -2.64 c-0.04 -0.6 -0.52 -0.92 -1.32 -0.8 c-0.8 0.08 -2.6 1.88 -2.72 2.68 c-0.08 0.4 0.12 0.64 0.44 0.76 z M79.18 40.16 c-1.6 0 -2.12 -0.56 -2.16 -2.08 c-0.04 -1.4 0.6 -2.56 1.36 -3.64 c0.64 -0.92 0.64 -1.44 -0.6 -1.56 c-0.32 -0.04 -0.64 -0.24 -0.96 -0.32 c-0.24 -0.08 -0.52 -0.16 -0.76 -0.28 c-0.76 -0.32 -1.08 -0.96 -0.92 -1.76 c0.32 -1.68 1.2 -2.96 2.72 -3.68 c0.68 -0.36 1.48 -0.4 2.08 0.16 c0.48 0.48 0.76 1.08 0.44 1.8 c-0.32 0.8 -0.6 1.64 -1.28 2.2 c-0.8 0.64 -1.16 1.08 0.08 1.6 c0.76 0.32 0.72 1 0.28 1.68 c-0.56 0.84 -1.08 1.68 -1.48 2.6 c-0.32 0.72 -0.48 1.64 0.12 2.24 c0.6 0.64 1.48 0.4 2.24 0.08 c1.6 -0.64 2.88 -1.6 4.2 -2.76 c1.2 -1.04 2.76 -2.52 4.12 -3.76 c0.24 -0.16 0.44 -0.6 0.8 -0.24 c0.24 0.24 -0.04 0.48 -0.2 0.64 c-2.56 2.32 -4.8 4.84 -7.92 6.48 c-0.72 0.36 -1.44 0.68 -2.16 0.6 z M76.78 31.72 c1.2 0.12 3.32 -2.76 2.88 -3.8 c-0.28 -0.64 -0.76 -0.68 -1.32 -0.48 c-0.92 0.28 -2.4 2.24 -2.48 3.2 c-0.04 0.72 0.52 0.84 0.92 1.08 z M91.87 28.64 c-0.44 0.04 -0.72 -0.24 -0.8 -0.68 c-0.16 -1 0.76 -1.16 1.32 -1.44 c0.4 -0.2 0.68 0.2 0.8 0.64 c-0.24 0.64 -0.48 1.36 -1.32 1.48 z M89.99000000000001 39.68 c-1.48 0.44 -2.68 -0.56 -2.56 -2.16 c0.44 -1.68 1.24 -3.36 2.04 -5.04 c0.16 -0.32 0.44 -0.6 0.76 -0.36 c0.4 0.28 0.04 0.6 -0.08 0.88 c-0.52 1.2 -1.12 2.4 -1.56 3.64 c-0.24 0.72 -0.56 1.56 0.24 2.24 c0.52 0.4 1.4 0 2.04 -0.24 c2.52 -1.04 4.52 -3.96 7.44 -6.12 c0.2 -0.12 0.36 -0.44 0.6 -0.12 c0.2 0.24 -0.04 0.44 -0.24 0.56 c-3.88 2.8 -4.6 5.56 -8.68 6.72 z M114.72 32.44 c0.4 0.32 -0.04 0.6 -0.24 0.76 c-2.16 2.12 -4.04 4.04 -6.6 5.64 c-0.48 0.28 -0.92 0.56 -1.4 0.76 c-0.92 0.36 -1.84 0.4 -2.64 -0.24 c-0.84 -0.68 -0.8 -1.64 -0.6 -2.56 c0.16 -0.68 0.4 -1.36 0.6 -2 c-1.76 0.84 -2.8 2.64 -4.44 3.68 c-0.56 0.36 -1.08 0.76 -1.68 1.04 c-0.72 0.32 -1.4 0.48 -2.04 -0.08 c-0.6 -0.56 -0.64 -1.32 -0.48 -2.04 c0.6 -2.84 4 -5.64 6.96 -5.72 c0.56 0 1.16 0.2 1.68 0.52 c0.24 0.16 0.44 0.56 0.8 0.36 c0.44 -0.24 0.8 -1 1.28 -0.2 c0.36 0.52 -0.16 0.96 -0.36 1.44 c-0.48 1 -1.12 1.96 -1.36 3.08 c-0.16 0.72 -0.4 1.4 0.32 1.96 c0.72 0.52 1.36 0.28 2.04 -0.08 c1.44 -0.68 2.72 -1.64 3.88 -2.76 c1.2 -1.16 2.28 -2 3.48 -3.16 c0.2 -0.24 0.48 -0.64 0.8 -0.4 z M103 34.24 c0.32 -0.32 0.68 -0.68 0.48 -1.2 c-0.28 -0.68 -0.92 -0.36 -1.32 -0.44 c-2.44 0 -5.04 2 -5.96 4.52 c-0.2 0.64 -0.56 1.28 0.12 1.8 c0.6 0.52 1.16 0.04 1.6 -0.24 c1.96 -1.16 3.48 -2.84 5.08 -4.44 z"></path></g><g id="SvgjsG1117" featureKey="sloganFeature-0" transform="matrix(0.3925109091033232,0,0,0.3925109091033232,88.13647598125631,53.17875036998537)" fill="#111111"><path d="M7.22 11.46 l2.64 0 q2.2 0 2.2 -2.12 q0 -1.1 -0.55 -1.59 t-1.65 -0.49 l-5.48 0 l0 4.8 q0.62 -0.36 1.4 -0.5 q0.58 -0.1 1.44 -0.1 z M4.38 20 l-2.18 0 l0 -14.92 l7.66 0 q1.32 0 2.3 0.51 t1.52 1.47 t0.54 2.27 t-0.54 2.29 t-1.53 1.51 t-2.29 0.53 l-2.64 0 q-1.72 0 -2.84 0.6 l0 5.74 z M22.374 20 l-2.14 0 l0 -14.92 l2.14 0 l0 14.92 z M34.248 6.66 l-0.82 -1.84 l2.4 0 l7.18 15.18 l-2.44 0 l-0.98 -2.18 l-4.54 0 q-1.28 0 -2.3 0.24 q-0.9 0.22 -1.5 0.58 q-0.54 0.32 -0.72 0.66 l-0.38 0.7 l-2.36 0 z M35.848 15.620000000000001 l2.76 0 l-3.26 -6.3 l-3.3 7.14 q0.44 -0.38 1.34 -0.6 q1.02 -0.24 2.46 -0.24 z M49.062 7.18 l-1.74 -2.1 l2.82 0 l9.58 11.4 l0 -11.4 l2.2 0 l0 14.92 l-2.16 0 l-8.56 -10.26 l0 10.26 l-2.14 0 l0 -12.82 z M82.03599999999999 12.440000000000001 q0 -1.6 -0.82 -2.9 q-0.78 -1.26 -2.13 -1.98 t-2.93 -0.72 q-1.64 0 -2.99 0.74 t-2.11 2.02 q-0.78 1.34 -0.78 2.98 q0 1.56 0.84 2.88 q0.8 1.24 2.15 1.97 t2.92 0.73 t2.92 -0.76 t2.13 -2.04 q0.8 -1.34 0.8 -2.92 z M84.196 12.559999999999999 q0 2.16 -1.12 3.98 q-1.08 1.74 -2.93 2.77 t-3.99 1.03 q-2.22 0 -4.08 -1.08 q-1.82 -1.04 -2.86 -2.86 q-1.08 -1.86 -1.08 -4.08 q0 -2.14 1.14 -3.94 q1.08 -1.72 2.93 -2.73 t3.97 -1.01 q2.18 0 4.04 1.06 q1.82 1.04 2.88 2.82 q1.1 1.86 1.1 4.04 z M110.24399999999999 15.46 q0 1.46 -0.88 2.6 q-0.86 1.08 -2.37 1.68 t-3.41 0.6 q-1.74 0 -3.38 -0.81 t-2.76 -2.25 l1.56 -1.46 q1.94 2.34 4.58 2.34 q1.16 0 2.12 -0.28 q1.06 -0.32 1.64 -0.9 q0.66 -0.64 0.66 -1.52 q0 -1.06 -0.66 -1.6 q-0.56 -0.46 -1.66 -0.6 q-0.64 -0.08 -2.1 -0.08 q-2.68 0 -4.09 -0.98 t-1.41 -2.88 q0 -1.2 0.71 -2.28 t1.95 -1.72 q1.28 -0.68 2.84 -0.68 q1.76 0 3.18 0.54 q1.52 0.58 2.82 1.82 l-1.36 1.6 q-1.22 -0.98 -2.22 -1.37 t-2.42 -0.39 q-0.82 0 -1.53 0.34 t-1.13 0.91 t-0.42 1.21 q0 1.72 3.18 1.72 q2.54 0 4.02 0.52 q1.4 0.5 2 1.52 q0.54 0.9 0.54 2.4 z M118.41799999999999 13.4 l0 6.6 l-2.16 0 l0 -14.92 l2.16 0 l0 6.12 q0.8 -0.4 1.9 -0.4 q0.4 0 1.94 0.18 q2.16 0.26 2.92 0.26 q1.16 0 2.02 -0.38 l0 -5.78 l2.18 0 l0 14.92 l-2.18 0 l0 -6.94 q-0.86 0.38 -2.02 0.38 q-0.76 0 -2.92 -0.26 q-1.54 -0.18 -1.94 -0.18 q-1.1 0 -1.9 0.4 z M138.772 14.02 l0 3.8 l9.2 0 l0 2.18 l-11.38 0 l0 -14.92 l10.5 0 l0 2.2 l-8.32 0 l0 4.52 q0.62 -0.36 1.38 -0.48 q0.56 -0.1 1.44 -0.1 l3.26 0 l0 2.22 l-3.26 0 q-0.82 0 -1.44 0.1 q-0.76 0.14 -1.38 0.48 z M156.46599999999998 14.02 l0 3.8 l9.2 0 l0 2.18 l-11.38 0 l0 -14.92 l10.5 0 l0 2.2 l-8.32 0 l0 4.52 q0.62 -0.36 1.38 -0.48 q0.56 -0.1 1.44 -0.1 l3.26 0 l0 2.22 l-3.26 0 q-0.82 0 -1.44 0.1 q-0.76 0.14 -1.38 0.48 z M183.07999999999998 7.279999999999999 l-5.26 0 l0 12.72 l-2.12 0 l0 -12.72 l-5.32 0 l0 -2.2 l12.7 0 l0 2.2 z M209.66799999999998 9.74 l-5.1 6.1 l-5.06 -6.1 l0 10.26 l-2.14 0 l0 -12.82 l-1.74 -2.1 l2.82 0 l6.1 7.32 l6.18 -7.32 l2.82 0 l-1.74 2.1 l0 12.82 l-2.14 0 l0 -10.26 z M225.96199999999996 20.34 q-2.1 0 -3.61 -0.73 t-2.3 -2.11 t-0.79 -3.3 l0 -9.12 l2.16 0 l0 9.12 q0 1.92 1.18 2.94 t3.36 1.02 t3.36 -1.02 t1.18 -2.94 l0 -9.12 l2.16 0 l0 9.12 q0 1.92 -0.79 3.3 t-2.3 2.11 t-3.61 0.73 z M251.27599999999998 15.46 q0 1.46 -0.88 2.6 q-0.86 1.08 -2.37 1.68 t-3.41 0.6 q-1.74 0 -3.38 -0.81 t-2.76 -2.25 l1.56 -1.46 q1.94 2.34 4.58 2.34 q1.16 0 2.12 -0.28 q1.06 -0.32 1.64 -0.9 q0.66 -0.64 0.66 -1.52 q0 -1.06 -0.66 -1.6 q-0.56 -0.46 -1.66 -0.6 q-0.64 -0.08 -2.1 -0.08 q-2.68 0 -4.09 -0.98 t-1.41 -2.88 q0 -1.2 0.71 -2.28 t1.95 -1.72 q1.28 -0.68 2.84 -0.68 q1.76 0 3.18 0.54 q1.52 0.58 2.82 1.82 l-1.36 1.6 q-1.22 -0.98 -2.22 -1.37 t-2.42 -0.39 q-0.82 0 -1.53 0.34 t-1.13 0.91 t-0.42 1.21 q0 1.72 3.18 1.72 q2.54 0 4.02 0.52 q1.4 0.5 2 1.52 q0.54 0.9 0.54 2.4 z M259.42999999999995 20 l-2.14 0 l0 -14.92 l2.14 0 l0 14.92 z M279.424 7 l-1.4 1.64 q-0.82 -0.84 -1.96 -1.32 t-2.4 -0.48 q-1.64 0 -2.99 0.74 t-2.11 2.02 q-0.78 1.34 -0.78 2.98 q0 1.56 0.84 2.88 q0.8 1.24 2.15 1.97 t2.91 0.73 q1.44 0 2.68 -0.62 t2.06 -1.72 l1.34 1.82 q-1.14 1.28 -2.73 1.99 t-3.37 0.71 q-2.22 0 -4.08 -1.08 q-1.82 -1.04 -2.86 -2.86 q-1.08 -1.86 -1.08 -4.08 q0 -2.14 1.14 -3.94 q1.08 -1.72 2.93 -2.73 t3.97 -1.01 q1.66 0 3.16 0.64 q1.46 0.6 2.58 1.72 z M298.67199999999997 6.66 l-0.82 -1.84 l2.4 0 l7.18 15.18 l-2.44 0 l-0.98 -2.18 l-4.54 0 q-1.28 0 -2.3 0.24 q-0.9 0.22 -1.5 0.58 q-0.54 0.32 -0.72 0.66 l-0.38 0.7 l-2.36 0 z M300.27199999999993 15.620000000000001 l2.76 0 l-3.26 -6.3 l-3.3 7.14 q0.44 -0.38 1.34 -0.6 q1.02 -0.24 2.46 -0.24 z M313.48599999999993 7.18 l-1.74 -2.1 l2.82 0 l9.58 11.4 l0 -11.4 l2.2 0 l0 14.92 l-2.16 0 l-8.56 -10.26 l0 10.26 l-2.14 0 l0 -12.82 z M336.53999999999996 7.279999999999999 l0 10.54 l3.38 0 q1.4 0 2.52 -0.72 q1.06 -0.7 1.66 -1.88 t0.6 -2.58 q0 -1.46 -0.57 -2.68 t-1.63 -1.94 q-1.14 -0.74 -2.62 -0.74 l-3.34 0 z M333.21999999999997 7.279999999999999 l-0.96 -2.2 l7.6 0 q1.98 0 3.62 1.02 q1.58 0.98 2.5 2.68 t0.92 3.7 q0 1.5 -0.59 2.97 t-1.63 2.57 q-1 1.08 -2.14 1.54 q-1.1 0.44 -2.62 0.44 l-5.52 0 l0 -12.72 l-1.18 0 z M372.448 7.279999999999999 l-5.26 0 l0 12.72 l-2.12 0 l0 -12.72 l-5.32 0 l0 -2.2 l12.7 0 l0 2.2 z M384.56199999999995 20.34 q-2.1 0 -3.61 -0.73 t-2.3 -2.11 t-0.79 -3.3 l0 -9.12 l2.16 0 l0 9.12 q0 1.92 1.18 2.94 t3.36 1.02 t3.36 -1.02 t1.18 -2.94 l0 -9.12 l2.16 0 l0 9.12 q0 1.92 -0.79 3.3 t-2.3 2.11 t-3.61 0.73 z M409.376 7.279999999999999 l-5.26 0 l0 12.72 l-2.12 0 l0 -12.72 l-5.32 0 l0 -2.2 l12.7 0 l0 2.2 z M427.89 12.440000000000001 q0 -1.6 -0.82 -2.9 q-0.78 -1.26 -2.13 -1.98 t-2.93 -0.72 q-1.64 0 -2.99 0.74 t-2.11 2.02 q-0.78 1.34 -0.78 2.98 q0 1.56 0.84 2.88 q0.8 1.24 2.15 1.97 t2.92 0.73 t2.92 -0.76 t2.13 -2.04 q0.8 -1.34 0.8 -2.92 z M430.04999999999995 12.559999999999999 q0 2.16 -1.12 3.98 q-1.08 1.74 -2.93 2.77 t-3.99 1.03 q-2.22 0 -4.08 -1.08 q-1.82 -1.04 -2.86 -2.86 q-1.08 -1.86 -1.08 -4.08 q0 -2.14 1.14 -3.94 q1.08 -1.72 2.93 -2.73 t3.97 -1.01 q2.18 0 4.04 1.06 q1.82 1.04 2.88 2.82 q1.1 1.86 1.1 4.04 z M438.44399999999996 7.26 l0 4.96 q0.62 -0.36 1.38 -0.48 q0.56 -0.1 1.44 -0.1 l2.84 0 q1.18 0 1.84 -0.54 q0.7 -0.58 0.7 -1.74 q0 -1.1 -0.74 -1.64 q-0.64 -0.46 -1.8 -0.46 l-5.66 0 z M444.82399999999996 17.64 l-1.82 -3.82 l-1.74 0 q-0.82 0 -1.44 0.1 q-0.76 0.14 -1.38 0.48 l0 5.6 l-2.18 0 l0 -14.92 l7.84 0 q1.38 0 2.44 0.52 t1.64 1.48 q0.62 1.02 0.62 2.4 q0 1.68 -0.9 2.76 t-2.54 1.5 l1.16 2.38 q0.5 0.74 0.78 1.04 q0.34 0.38 0.65 0.51 t0.81 0.13 l0.22 0 l0.48 -0.02 l0 2.22 q-1.16 0 -1.72 -0.08 q-0.94 -0.16 -1.6 -0.62 q-0.78 -0.56 -1.32 -1.66 z M458.0179999999999 20 l-2.14 0 l0 -14.92 l2.14 0 l0 14.92 z M469.89199999999994 6.66 l-0.82 -1.84 l2.4 0 l7.18 15.18 l-2.44 0 l-0.98 -2.18 l-4.54 0 q-1.28 0 -2.3 0.24 q-0.9 0.22 -1.5 0.58 q-0.54 0.32 -0.72 0.66 l-0.38 0.7 l-2.36 0 z M471.4919999999999 15.620000000000001 l2.76 0 l-3.26 -6.3 l-3.3 7.14 q0.44 -0.38 1.34 -0.6 q1.02 -0.24 2.46 -0.24 z M494.72599999999994 20 l-10.46 0 l0 -14.92 l2.18 0 l0 12.74 l8.28 0 l0 2.18 z M511.73999999999995 15.46 q0 1.46 -0.88 2.6 q-0.86 1.08 -2.37 1.68 t-3.41 0.6 q-1.74 0 -3.38 -0.81 t-2.76 -2.25 l1.56 -1.46 q1.94 2.34 4.58 2.34 q1.16 0 2.12 -0.28 q1.06 -0.32 1.64 -0.9 q0.66 -0.64 0.66 -1.52 q0 -1.06 -0.66 -1.6 q-0.56 -0.46 -1.66 -0.6 q-0.64 -0.08 -2.1 -0.08 q-2.68 0 -4.09 -0.98 t-1.41 -2.88 q0 -1.2 0.71 -2.28 t1.95 -1.72 q1.28 -0.68 2.84 -0.68 q1.76 0 3.18 0.54 q1.52 0.58 2.82 1.82 l-1.36 1.6 q-1.22 -0.98 -2.22 -1.37 t-2.42 -0.39 q-0.82 0 -1.53 0.34 t-1.13 0.91 t-0.42 1.21 q0 1.72 3.18 1.72 q2.54 0 4.02 0.52 q1.4 0.5 2 1.52 q0.54 0.9 0.54 2.4 z"></path></g>
			</g>
		</svg>
	